<svg xmlns="http://www.w3.org/2000/svg" viewBox="0 0 277.68 294.06"><defs><style>.cls-1{fill:#575756;}.cls-2{fill:#af7dfd;}.cls-3{fill:#fff;}</style></defs><title>Asset 2</title><g id="Layer_2" data-name="Layer 2"><g id="Camada_1" data-name="Camada 1"><path class="cls-1" d="M17.44,272.55H11.2v21H4v-21H0v-3.48l4-1.94v-1.94q0-4.53,2.22-6.61t7.13-2.08A18.58,18.58,0,0,1,20,257.61l-1.85,5.3a13.65,13.65,0,0,0-4-.68,2.61,2.61,0,0,0-2.23.91,3.75,3.75,0,0,0-.68,2.33v1.66h6.24Z"/><path class="cls-1" d="M37.18,293.59l-1.4-3.6h-.19a10.6,10.6,0,0,1-3.75,3.19,12.13,12.13,0,0,1-5,.88,8.14,8.14,0,0,1-6-2.17,8.38,8.38,0,0,1-2.19-6.21,7,7,0,0,1,2.95-6.21q3-2,8.89-2.21l4.59-.14V276q0-4-4.12-4a18.72,18.72,0,0,0-7.45,1.92L21.08,269a21.6,21.6,0,0,1,10.14-2.39c3.55,0,6.27.78,8.16,2.32s2.84,3.9,2.84,7.06v17.63Zm-2.13-12.26-2.79.1a9,9,0,0,0-4.69,1.13A3.56,3.56,0,0,0,26,285.73q0,3.06,3.51,3.06a5.53,5.53,0,0,0,4-1.45,5.07,5.07,0,0,0,1.5-3.83Z"/><path class="cls-1" d="M59.19,294.06q-12.36,0-12.36-13.56,0-6.75,3.37-10.31t9.63-3.56a18.37,18.37,0,0,1,8.24,1.8L65.94,274c-1.14-.46-2.2-.84-3.18-1.13a10.2,10.2,0,0,0-2.93-.44q-5.64,0-5.63,8,0,7.77,5.63,7.77a12.91,12.91,0,0,0,3.86-.56,14,14,0,0,0,3.55-1.74v6.18a11.88,11.88,0,0,1-3.54,1.54A20.21,20.21,0,0,1,59.19,294.06Z"/><path class="cls-1" d="M84.13,294.06q-6.39,0-10-3.52t-3.59-10c0-4.44,1.11-7.86,3.32-10.29s5.28-3.63,9.2-3.63q5.61,0,8.73,3.2t3.13,8.83v3.5H77.86a7,7,0,0,0,1.82,4.8,6.39,6.39,0,0,0,4.78,1.73,19.41,19.41,0,0,0,4.53-.5,23,23,0,0,0,4.45-1.58v5.58a16.47,16.47,0,0,1-4,1.41A25.43,25.43,0,0,1,84.13,294.06Zm-1-22.29a4.57,4.57,0,0,0-3.6,1.45A6.69,6.69,0,0,0,78,277.35H88.16a6,6,0,0,0-1.4-4.13A4.72,4.72,0,0,0,83.12,271.77Z"/><path class="cls-2" d="M114.31,266.63a8.57,8.57,0,0,1,7.34,3.66q2.64,3.66,2.65,10,0,6.56-2.74,10.16a9.56,9.56,0,0,1-14.76.21h-.49l-1.21,2.91H99.58V256.76h7.22v8.57c0,1.09-.09,2.83-.28,5.23h.28A8.36,8.36,0,0,1,114.31,266.63ZM112,272.41a4.59,4.59,0,0,0-3.91,1.64c-.82,1.1-1.24,2.91-1.28,5.43v.79c0,2.84.43,4.87,1.27,6.1a4.53,4.53,0,0,0,4,1.85,4,4,0,0,0,3.54-2.05,11,11,0,0,0,1.32-5.95,10.52,10.52,0,0,0-1.33-5.86A4.15,4.15,0,0,0,112,272.41Z"/><path class="cls-2" d="M153.1,280.31q0,6.46-3.41,10.11t-9.49,3.64a13.29,13.29,0,0,1-6.72-1.66,11.13,11.13,0,0,1-4.48-4.8,16.11,16.11,0,0,1-1.56-7.29q0-6.48,3.39-10.08t9.51-3.6a13.29,13.29,0,0,1,6.72,1.66,11,11,0,0,1,4.48,4.76A16,16,0,0,1,153.1,280.31Zm-18.3,0a11.1,11.1,0,0,0,1.29,5.94,5.35,5.35,0,0,0,8.36,0,11.35,11.35,0,0,0,1.26-6,10.94,10.94,0,0,0-1.27-5.89,5.43,5.43,0,0,0-8.36,0A10.92,10.92,0,0,0,134.8,280.31Z"/><path class="cls-2" d="M181.9,280.31q0,6.46-3.41,10.11T169,294.06a13.29,13.29,0,0,1-6.72-1.66,11.19,11.19,0,0,1-4.48-4.8,16.11,16.11,0,0,1-1.56-7.29q0-6.48,3.39-10.08t9.51-3.6a13.29,13.29,0,0,1,6.72,1.66,11,11,0,0,1,4.48,4.76A16,16,0,0,1,181.9,280.31Zm-18.3,0a11.1,11.1,0,0,0,1.29,5.94,5.35,5.35,0,0,0,8.36,0,11.34,11.34,0,0,0,1.27-6,10.93,10.93,0,0,0-1.28-5.89,5.43,5.43,0,0,0-8.36,0A10.92,10.92,0,0,0,163.6,280.31Z"/><path class="cls-2" d="M210.35,293.59h-7.22V278.14a7.78,7.78,0,0,0-1-4.3,3.37,3.37,0,0,0-3-1.43,4.36,4.36,0,0,0-4,2q-1.26,2-1.26,6.7v12.45h-7.22V267.13h5.52l1,3.38h.4a7.4,7.4,0,0,1,3.08-2.85,9.94,9.94,0,0,1,4.61-1c4,0,6.65,1.3,8.05,3.88h.64a7.17,7.17,0,0,1,3.14-2.86,10.44,10.44,0,0,1,4.67-1q4.5,0,6.81,2.31c1.54,1.54,2.3,4,2.3,7.4v17.25H219.6V278.14a7.78,7.78,0,0,0-1-4.3,3.35,3.35,0,0,0-3-1.43,4.52,4.52,0,0,0-4,1.89c-.87,1.26-1.31,3.27-1.31,6Z"/><path class="cls-2" d="M245,294.06q-6.39,0-10-3.52t-3.6-10c0-4.44,1.11-7.86,3.33-10.29s5.28-3.63,9.19-3.63c3.74,0,6.66,1.07,8.74,3.2s3.12,5.07,3.12,8.83v3.5H238.75a6.92,6.92,0,0,0,1.82,4.8,6.39,6.39,0,0,0,4.78,1.73,19.39,19.39,0,0,0,4.52-.5,23,23,0,0,0,4.45-1.58v5.58a16.19,16.19,0,0,1-4,1.41A25.26,25.26,0,0,1,245,294.06Zm-1-22.29a4.59,4.59,0,0,0-3.6,1.45,6.81,6.81,0,0,0-1.49,4.13H249a6,6,0,0,0-1.39-4.13A4.74,4.74,0,0,0,244,271.77Z"/><path class="cls-2" d="M275.24,266.63a11.84,11.84,0,0,1,2.44.21l-.55,6.77a8.61,8.61,0,0,0-2.13-.23,7.67,7.67,0,0,0-5.38,1.77,6.41,6.41,0,0,0-1.93,5v13.47h-7.22V267.13h5.47l1.06,4.45h.36a10,10,0,0,1,3.32-3.59A8.28,8.28,0,0,1,275.24,266.63Z"/><rect class="cls-2" x="38.01" width="208.51" height="208.51" rx="44.84"/><path class="cls-3" d="M144.91,92.85a10,10,0,0,0-2.36-19.78h-28V46.52a19.64,19.64,0,1,0-1.25-7.6,38.17,38.17,0,0,0-44.48,6.4h0A38.16,38.16,0,0,0,70,101.08L71.65,180a10,10,0,0,0,20.07,0V112.77a1.4,1.4,0,1,1,2.79,0V180a10,10,0,0,0,20.08,0V93.14h27.55l9.06,92.25a1.4,1.4,0,0,0,1.39,1.26h.14a1.41,1.41,0,0,0,1.25-1.53Z"/></g></g></svg>